# Blender v2.79 (sub 0) OBJ File: ''
# www.blender.org
mtllib floor.mtl
o Grid
v -3.000000 -1.000000 3.000000
v -2.333333 -1.000000 3.000000
v -1.666667 -1.000000 3.000000
v -1.000000 -1.000000 3.000000
v -0.333333 -1.000000 3.000000
v 0.333333 -1.000000 3.000000
v 1.000000 -1.000000 3.000000
v 1.666667 -1.000000 3.000000
v 2.333333 -1.000000 3.000000
v 3.000000 -1.000000 3.000000
v -3.000000 -1.000000 2.333333
v -2.333333 -1.000000 2.333333
v -1.666667 -1.000000 2.333333
v -1.000000 -1.000000 2.333333
v -0.333333 -1.000000 2.333333
v 0.333333 -1.000000 2.333333
v 1.000000 -1.000000 2.333333
v 1.666667 -1.000000 2.333333
v 2.333333 -1.000000 2.333333
v 3.000000 -1.000000 2.333333
v -3.000000 -1.000000 1.666667
v -2.333333 -1.000000 1.666667
v -1.666667 -1.000000 1.666667
v -1.000000 -1.000000 1.666667
v -0.333333 -1.000000 1.666667
v 0.333333 -1.000000 1.666667
v 1.000000 -1.000000 1.666667
v 1.666667 -1.000000 1.666667
v 2.333333 -1.000000 1.666667
v 3.000000 -1.000000 1.666667
v -3.000000 -1.000000 1.000000
v -2.333333 -1.000000 1.000000
v -1.666667 -1.000000 1.000000
v -1.000000 -1.000000 1.000000
v -0.333333 -1.000000 1.000000
v 0.333333 -1.000000 1.000000
v 1.000000 -1.000000 1.000000
v 1.666667 -1.000000 1.000000
v 2.333333 -1.000000 1.000000
v 3.000000 -1.000000 1.000000
v -3.000000 -1.000000 0.333333
v -2.333333 -1.000000 0.333333
v -1.666667 -1.000000 0.333333
v -1.000000 -1.000000 0.333333
v -0.333333 -1.000000 0.333333
v 0.333333 -1.000000 0.333333
v 1.000000 -1.000000 0.333333
v 1.666667 -1.000000 0.333333
v 2.333333 -1.000000 0.333333
v 3.000000 -1.000000 0.333333
v -3.000000 -1.000000 -0.333333
v -2.333333 -1.000000 -0.333333
v -1.666667 -1.000000 -0.333333
v -1.000000 -1.000000 -0.333333
v -0.333333 -1.000000 -0.333333
v 0.333333 -1.000000 -0.333333
v 1.000000 -1.000000 -0.333333
v 1.666667 -1.000000 -0.333333
v 2.333333 -1.000000 -0.333333
v 3.000000 -1.000000 -0.333333
v -3.000000 -1.000000 -1.000000
v -2.333333 -1.000000 -1.000000
v -1.666667 -1.000000 -1.000000
v -1.000000 -1.000000 -1.000000
v -0.333333 -1.000000 -1.000000
v 0.333333 -1.000000 -1.000000
v 1.000000 -1.000000 -1.000000
v 1.666667 -1.000000 -1.000000
v 2.333333 -1.000000 -1.000000
v 3.000000 -1.000000 -1.000000
v -3.000000 -1.000000 -1.666667
v -2.333333 -1.000000 -1.666667
v -1.666667 -1.000000 -1.666667
v -1.000000 -1.000000 -1.666667
v -0.333333 -1.000000 -1.666667
v 0.333333 -1.000000 -1.666667
v 1.000000 -1.000000 -1.666667
v 1.666667 -1.000000 -1.666667
v 2.333333 -1.000000 -1.666667
v 3.000000 -1.000000 -1.666667
v -3.000000 -1.000000 -2.333333
v -2.333333 -1.000000 -2.333333
v -1.666667 -1.000000 -2.333333
v -1.000000 -1.000000 -2.333333
v -0.333333 -1.000000 -2.333333
v 0.333333 -1.000000 -2.333333
v 1.000000 -1.000000 -2.333333
v 1.666667 -1.000000 -2.333333
v 2.333333 -1.000000 -2.333333
v 3.000000 -1.000000 -2.333333
v -3.000000 -1.000000 -3.000000
v -2.333333 -1.000000 -3.000000
v -1.666667 -1.000000 -3.000000
v -1.000000 -1.000000 -3.000000
v -0.333333 -1.000000 -3.000000
v 0.333333 -1.000000 -3.000000
v 1.000000 -1.000000 -3.000000
v 1.666667 -1.000000 -3.000000
v 2.333333 -1.000000 -3.000000
v 3.000000 -1.000000 -3.000000
v -3.000000 -1.000000 2.333333
v -2.333333 -1.000000 3.000000
v -2.333333 -1.000000 2.333333
v -2.333333 -1.000000 2.333333
v -2.333333 -1.000000 2.333333
v -1.666667 -1.000000 3.000000
v -1.666667 -1.000000 2.333333
v -1.666667 -1.000000 2.333333
v -1.666667 -1.000000 2.333333
v -1.000000 -1.000000 3.000000
v -1.000000 -1.000000 2.333333
v -1.000000 -1.000000 2.333333
v -1.000000 -1.000000 2.333333
v -0.333333 -1.000000 3.000000
v -0.333333 -1.000000 2.333333
v -0.333333 -1.000000 2.333333
v -0.333333 -1.000000 2.333333
v 0.333333 -1.000000 3.000000
v 0.333333 -1.000000 2.333333
v 0.333333 -1.000000 2.333333
v 0.333333 -1.000000 2.333333
v 1.000000 -1.000000 3.000000
v 1.000000 -1.000000 2.333333
v 1.000000 -1.000000 2.333333
v 1.000000 -1.000000 2.333333
v 1.666667 -1.000000 3.000000
v 1.666667 -1.000000 2.333333
v 1.666667 -1.000000 2.333333
v 1.666667 -1.000000 2.333333
v 2.333333 -1.000000 3.000000
v 2.333333 -1.000000 2.333333
v 2.333333 -1.000000 2.333333
v 2.333333 -1.000000 2.333333
v 3.000000 -1.000000 2.333333
v -3.000000 -1.000000 1.666667
v -2.333333 -1.000000 1.666667
v -2.333333 -1.000000 1.666667
v -2.333333 -1.000000 1.666667
v -1.666667 -1.000000 1.666667
v -1.666667 -1.000000 1.666667
v -1.666667 -1.000000 1.666667
v -1.000000 -1.000000 1.666667
v -1.000000 -1.000000 1.666667
v -1.000000 -1.000000 1.666667
v -0.333333 -1.000000 1.666667
v -0.333333 -1.000000 1.666667
v -0.333333 -1.000000 1.666667
v 0.333333 -1.000000 1.666667
v 0.333333 -1.000000 1.666667
v 0.333333 -1.000000 1.666667
v 1.000000 -1.000000 1.666667
v 1.000000 -1.000000 1.666667
v 1.000000 -1.000000 1.666667
v 1.666667 -1.000000 1.666667
v 1.666667 -1.000000 1.666667
v 1.666667 -1.000000 1.666667
v 2.333333 -1.000000 1.666667
v 2.333333 -1.000000 1.666667
v 2.333333 -1.000000 1.666667
v 3.000000 -1.000000 1.666667
v -3.000000 -1.000000 1.000000
v -2.333333 -1.000000 1.000000
v -2.333333 -1.000000 1.000000
v -2.333333 -1.000000 1.000000
v -1.666667 -1.000000 1.000000
v -1.666667 -1.000000 1.000000
v -1.666667 -1.000000 1.000000
v -1.000000 -1.000000 1.000000
v -1.000000 -1.000000 1.000000
v -1.000000 -1.000000 1.000000
v -0.333333 -1.000000 1.000000
v -0.333333 -1.000000 1.000000
v -0.333333 -1.000000 1.000000
v 0.333333 -1.000000 1.000000
v 0.333333 -1.000000 1.000000
v 0.333333 -1.000000 1.000000
v 1.000000 -1.000000 1.000000
v 1.000000 -1.000000 1.000000
v 1.000000 -1.000000 1.000000
v 1.666667 -1.000000 1.000000
v 1.666667 -1.000000 1.000000
v 1.666667 -1.000000 1.000000
v 2.333333 -1.000000 1.000000
v 2.333333 -1.000000 1.000000
v 2.333333 -1.000000 1.000000
v 3.000000 -1.000000 1.000000
v -3.000000 -1.000000 0.333333
v -2.333333 -1.000000 0.333333
v -2.333333 -1.000000 0.333333
v -2.333333 -1.000000 0.333333
v -1.666667 -1.000000 0.333333
v -1.666667 -1.000000 0.333333
v -1.666667 -1.000000 0.333333
v -1.000000 -1.000000 0.333333
v -1.000000 -1.000000 0.333333
v -1.000000 -1.000000 0.333333
v -0.333333 -1.000000 0.333333
v -0.333333 -1.000000 0.333333
v -0.333333 -1.000000 0.333333
v 0.333333 -1.000000 0.333333
v 0.333333 -1.000000 0.333333
v 0.333333 -1.000000 0.333333
v 1.000000 -1.000000 0.333333
v 1.000000 -1.000000 0.333333
v 1.000000 -1.000000 0.333333
v 1.666667 -1.000000 0.333333
v 1.666667 -1.000000 0.333333
v 1.666667 -1.000000 0.333333
v 2.333333 -1.000000 0.333333
v 2.333333 -1.000000 0.333333
v 2.333333 -1.000000 0.333333
v 3.000000 -1.000000 0.333333
v -3.000000 -1.000000 -0.333333
v -2.333333 -1.000000 -0.333333
v -2.333333 -1.000000 -0.333333
v -2.333333 -1.000000 -0.333333
v -1.666667 -1.000000 -0.333333
v -1.666667 -1.000000 -0.333333
v -1.666667 -1.000000 -0.333333
v -1.000000 -1.000000 -0.333333
v -1.000000 -1.000000 -0.333333
v -1.000000 -1.000000 -0.333333
v -0.333333 -1.000000 -0.333333
v -0.333333 -1.000000 -0.333333
v -0.333333 -1.000000 -0.333333
v 0.333333 -1.000000 -0.333333
v 0.333333 -1.000000 -0.333333
v 0.333333 -1.000000 -0.333333
v 1.000000 -1.000000 -0.333333
v 1.000000 -1.000000 -0.333333
v 1.000000 -1.000000 -0.333333
v 1.666667 -1.000000 -0.333333
v 1.666667 -1.000000 -0.333333
v 1.666667 -1.000000 -0.333333
v 2.333333 -1.000000 -0.333333
v 2.333333 -1.000000 -0.333333
v 2.333333 -1.000000 -0.333333
v 3.000000 -1.000000 -0.333333
v -3.000000 -1.000000 -1.000000
v -2.333333 -1.000000 -1.000000
v -2.333333 -1.000000 -1.000000
v -2.333333 -1.000000 -1.000000
v -1.666667 -1.000000 -1.000000
v -1.666667 -1.000000 -1.000000
v -1.666667 -1.000000 -1.000000
v -1.000000 -1.000000 -1.000000
v -1.000000 -1.000000 -1.000000
v -1.000000 -1.000000 -1.000000
v -0.333333 -1.000000 -1.000000
v -0.333333 -1.000000 -1.000000
v -0.333333 -1.000000 -1.000000
v 0.333333 -1.000000 -1.000000
v 0.333333 -1.000000 -1.000000
v 0.333333 -1.000000 -1.000000
v 1.000000 -1.000000 -1.000000
v 1.000000 -1.000000 -1.000000
v 1.000000 -1.000000 -1.000000
v 1.666667 -1.000000 -1.000000
v 1.666667 -1.000000 -1.000000
v 1.666667 -1.000000 -1.000000
v 2.333333 -1.000000 -1.000000
v 2.333333 -1.000000 -1.000000
v 2.333333 -1.000000 -1.000000
v 3.000000 -1.000000 -1.000000
v -3.000000 -1.000000 -1.666667
v -2.333333 -1.000000 -1.666667
v -2.333333 -1.000000 -1.666667
v -2.333333 -1.000000 -1.666667
v -1.666667 -1.000000 -1.666667
v -1.666667 -1.000000 -1.666667
v -1.666667 -1.000000 -1.666667
v -1.000000 -1.000000 -1.666667
v -1.000000 -1.000000 -1.666667
v -1.000000 -1.000000 -1.666667
v -0.333333 -1.000000 -1.666667
v -0.333333 -1.000000 -1.666667
v -0.333333 -1.000000 -1.666667
v 0.333333 -1.000000 -1.666667
v 0.333333 -1.000000 -1.666667
v 0.333333 -1.000000 -1.666667
v 1.000000 -1.000000 -1.666667
v 1.000000 -1.000000 -1.666667
v 1.000000 -1.000000 -1.666667
v 1.666667 -1.000000 -1.666667
v 1.666667 -1.000000 -1.666667
v 1.666667 -1.000000 -1.666667
v 2.333333 -1.000000 -1.666667
v 2.333333 -1.000000 -1.666667
v 2.333333 -1.000000 -1.666667
v 3.000000 -1.000000 -1.666667
v -3.000000 -1.000000 -2.333333
v -2.333333 -1.000000 -2.333333
v -2.333333 -1.000000 -2.333333
v -2.333333 -1.000000 -2.333333
v -1.666667 -1.000000 -2.333333
v -1.666667 -1.000000 -2.333333
v -1.666667 -1.000000 -2.333333
v -1.000000 -1.000000 -2.333333
v -1.000000 -1.000000 -2.333333
v -1.000000 -1.000000 -2.333333
v -0.333333 -1.000000 -2.333333
v -0.333333 -1.000000 -2.333333
v -0.333333 -1.000000 -2.333333
v 0.333333 -1.000000 -2.333333
v 0.333333 -1.000000 -2.333333
v 0.333333 -1.000000 -2.333333
v 1.000000 -1.000000 -2.333333
v 1.000000 -1.000000 -2.333333
v 1.000000 -1.000000 -2.333333
v 1.666667 -1.000000 -2.333333
v 1.666667 -1.000000 -2.333333
v 1.666667 -1.000000 -2.333333
v 2.333333 -1.000000 -2.333333
v 2.333333 -1.000000 -2.333333
v 2.333333 -1.000000 -2.333333
v 3.000000 -1.000000 -2.333333
v -2.333333 -1.000000 -3.000000
v -1.666667 -1.000000 -3.000000
v -1.000000 -1.000000 -3.000000
v -0.333333 -1.000000 -3.000000
v 0.333333 -1.000000 -3.000000
v 1.000000 -1.000000 -3.000000
v 1.666667 -1.000000 -3.000000
v 2.333333 -1.000000 -3.000000
vt 0.999114 0.556441
vt 0.889775 0.665781
vt 0.889775 0.556441
vt 0.776892 0.889774
vt 0.667552 0.999114
vt 0.667552 0.889774
vt 0.443559 0.223108
vt 0.334219 0.332448
vt 0.334219 0.223108
vt 0.332448 0.778663
vt 0.223108 0.888003
vt 0.223108 0.778663
vt 0.665781 0.445330
vt 0.556441 0.554670
vt 0.556441 0.445330
vt 0.665781 0.778663
vt 0.556441 0.888003
vt 0.556441 0.778663
vt 0.665781 0.667552
vt 0.556441 0.776892
vt 0.556441 0.667552
vt 0.888003 0.334219
vt 0.778663 0.443559
vt 0.778663 0.334219
vt 0.888003 0.556441
vt 0.778663 0.665781
vt 0.778663 0.556441
vt 0.221337 0.889774
vt 0.111997 0.999114
vt 0.111997 0.889774
vt 0.999114 0.111997
vt 0.889775 0.221337
vt 0.889775 0.111997
vt 0.665781 0.000886
vt 0.556441 0.110225
vt 0.556441 0.000886
vt 0.332448 0.223108
vt 0.223108 0.332448
vt 0.223108 0.223108
vt 0.665781 0.556441
vt 0.556441 0.665781
vt 0.556441 0.556441
vt 0.332448 0.111997
vt 0.223108 0.221337
vt 0.223108 0.111997
vt 0.221337 0.223108
vt 0.111997 0.332448
vt 0.111997 0.223108
vt 0.221337 0.000886
vt 0.111997 0.110225
vt 0.111997 0.000886
vt 0.110225 0.334219
vt 0.000886 0.443559
vt 0.000886 0.334219
vt 0.667552 0.111997
vt 0.776892 0.221337
vt 0.667552 0.221337
vt 0.556441 0.223108
vt 0.665781 0.332448
vt 0.556441 0.332448
vt 0.000886 0.111997
vt 0.110225 0.221337
vt 0.000886 0.221337
vt 0.111997 0.667552
vt 0.221337 0.776892
vt 0.111997 0.776892
vt 0.000886 0.000886
vt 0.110225 0.110225
vt 0.000886 0.110225
vt 0.000886 0.667552
vt 0.110225 0.776892
vt 0.000886 0.776892
vt 0.223108 0.556441
vt 0.332448 0.665781
vt 0.223108 0.665781
vt 0.111997 0.556441
vt 0.221337 0.665781
vt 0.111997 0.665781
vt 0.445330 0.334219
vt 0.554670 0.443559
vt 0.445330 0.443559
vt 0.999114 0.334219
vt 0.889775 0.443559
vt 0.889775 0.334219
vt 0.554670 0.889774
vt 0.445330 0.999114
vt 0.445330 0.889774
vt 0.221337 0.334219
vt 0.111997 0.443559
vt 0.111997 0.334219
vt 0.665781 0.889774
vt 0.556441 0.999114
vt 0.556441 0.889774
vt 0.443559 0.445330
vt 0.334219 0.554670
vt 0.334219 0.445330
vt 0.999114 0.889774
vt 0.889775 0.999114
vt 0.889775 0.889774
vt 0.999114 0.667552
vt 0.889775 0.776892
vt 0.889775 0.667552
vt 0.443559 0.667552
vt 0.334219 0.776892
vt 0.334219 0.667552
vt 0.888003 0.111997
vt 0.778664 0.221337
vt 0.778664 0.111997
vt 0.111997 0.445330
vt 0.221337 0.554670
vt 0.111997 0.554670
vt 0.223108 0.445330
vt 0.332448 0.554670
vt 0.223108 0.554670
vt 0.110225 0.445330
vt 0.000886 0.554670
vt 0.000886 0.445330
vt 0.445330 0.556441
vt 0.554670 0.665781
vt 0.445330 0.665781
vt 0.443559 0.111997
vt 0.334219 0.221337
vt 0.334219 0.111997
vt 0.556441 0.334219
vt 0.665781 0.443559
vt 0.556441 0.443559
vt 0.000886 0.556441
vt 0.110225 0.665781
vt 0.000886 0.665781
vt 0.223108 0.667552
vt 0.332448 0.776892
vt 0.223108 0.776892
vt 0.334219 0.556441
vt 0.443559 0.665781
vt 0.334219 0.665781
vt 0.776892 0.778663
vt 0.667552 0.888003
vt 0.667552 0.778663
vt 0.110225 0.889775
vt 0.000886 0.999114
vt 0.000886 0.889775
vt 0.554670 0.000886
vt 0.445330 0.110225
vt 0.445330 0.000886
vt 0.443559 0.889774
vt 0.334219 0.999114
vt 0.334219 0.889774
vt 0.554670 0.111997
vt 0.445330 0.221337
vt 0.445330 0.111997
vt 0.110225 0.778663
vt 0.000886 0.888003
vt 0.000886 0.778663
vt 0.221337 0.778663
vt 0.111997 0.888003
vt 0.111997 0.778663
vt 0.443559 0.778663
vt 0.334219 0.888003
vt 0.334219 0.778663
vt 0.888003 0.778663
vt 0.778663 0.888003
vt 0.778663 0.778663
vt 0.776892 0.223108
vt 0.667552 0.332448
vt 0.667552 0.223108
vt 0.776892 0.334219
vt 0.667552 0.443559
vt 0.667552 0.334219
vt 0.443559 0.334219
vt 0.334219 0.443559
vt 0.334219 0.334219
vt 0.776892 0.667552
vt 0.667552 0.776892
vt 0.667552 0.667552
vt 0.776892 0.000886
vt 0.667552 0.110225
vt 0.667552 0.000886
vt 0.999114 0.778663
vt 0.889775 0.888003
vt 0.889775 0.778663
vt 0.554670 0.778663
vt 0.445330 0.888003
vt 0.445330 0.778663
vt 0.554670 0.667552
vt 0.445330 0.776892
vt 0.445330 0.667552
vt 0.888003 0.223108
vt 0.778663 0.332448
vt 0.778663 0.223108
vt 0.332448 0.889774
vt 0.223108 0.999114
vt 0.223108 0.889774
vt 0.999114 0.445330
vt 0.889775 0.554670
vt 0.889775 0.445330
vt 0.332448 0.334219
vt 0.223108 0.443559
vt 0.223108 0.334219
vt 0.888003 0.889774
vt 0.778663 0.999114
vt 0.778663 0.889774
vt 0.554670 0.223108
vt 0.445330 0.332448
vt 0.445330 0.223108
vt 0.332448 0.000886
vt 0.223108 0.110225
vt 0.223108 0.000886
vt 0.221337 0.111997
vt 0.111997 0.221337
vt 0.111997 0.111997
vt 0.443559 0.000886
vt 0.334219 0.110225
vt 0.334219 0.000886
vt 0.110225 0.223108
vt 0.000886 0.332448
vt 0.000886 0.223108
vt 0.888003 0.445330
vt 0.778663 0.554670
vt 0.778663 0.445330
vt 0.776892 0.556441
vt 0.667552 0.665781
vt 0.667552 0.556441
vt 0.665781 0.111997
vt 0.556441 0.221337
vt 0.556441 0.111997
vt 0.888003 0.667552
vt 0.778663 0.776892
vt 0.778663 0.667552
vt 0.554670 0.445330
vt 0.445330 0.554670
vt 0.445330 0.445330
vt 0.999114 0.223108
vt 0.889775 0.332448
vt 0.889775 0.223108
vt 0.999114 0.000886
vt 0.889775 0.110225
vt 0.889775 0.000886
vt 0.776892 0.445330
vt 0.667552 0.554670
vt 0.667552 0.445330
vt 0.888003 0.000886
vt 0.778664 0.110225
vt 0.778664 0.000886
vt 0.999114 0.665781
vt 0.776892 0.999114
vt 0.443559 0.332448
vt 0.332448 0.888003
vt 0.665781 0.554670
vt 0.665781 0.888003
vt 0.665781 0.776892
vt 0.888003 0.443559
vt 0.888003 0.665781
vt 0.221337 0.999114
vt 0.999114 0.221337
vt 0.665781 0.110225
vt 0.332448 0.332448
vt 0.665781 0.665781
vt 0.332448 0.221337
vt 0.221337 0.332448
vt 0.221337 0.110225
vt 0.110225 0.443559
vt 0.776892 0.111997
vt 0.665781 0.223108
vt 0.110225 0.111997
vt 0.221337 0.667552
vt 0.110225 0.000886
vt 0.110225 0.667552
vt 0.332448 0.556441
vt 0.221337 0.556441
vt 0.554670 0.334219
vt 0.999114 0.443559
vt 0.554670 0.999114
vt 0.221337 0.443559
vt 0.665781 0.999114
vt 0.443559 0.554670
vt 0.999114 0.999114
vt 0.999114 0.776892
vt 0.443559 0.776892
vt 0.888003 0.221337
vt 0.221337 0.445330
vt 0.332448 0.445330
vt 0.110225 0.554670
vt 0.554670 0.556441
vt 0.443559 0.221337
vt 0.665781 0.334219
vt 0.110225 0.556441
vt 0.332448 0.667552
vt 0.443559 0.556441
vt 0.776892 0.888003
vt 0.110225 0.999114
vt 0.554670 0.110225
vt 0.443559 0.999114
vt 0.554670 0.221337
vt 0.110225 0.888003
vt 0.221337 0.888003
vt 0.443559 0.888003
vt 0.888003 0.888003
vt 0.776892 0.332448
vt 0.776892 0.443559
vt 0.443559 0.443559
vt 0.776892 0.776892
vt 0.776892 0.110225
vt 0.999114 0.888003
vt 0.554670 0.888003
vt 0.554670 0.776892
vt 0.888003 0.332448
vt 0.332448 0.999114
vt 0.999114 0.554670
vt 0.332448 0.443559
vt 0.888003 0.999114
vt 0.554670 0.332448
vt 0.332448 0.110225
vt 0.221337 0.221337
vt 0.443559 0.110225
vt 0.110225 0.332448
vt 0.888003 0.554670
vt 0.776892 0.665781
vt 0.665781 0.221337
vt 0.888003 0.776892
vt 0.554670 0.554670
vt 0.999114 0.332448
vt 0.999114 0.110225
vt 0.776892 0.554670
vt 0.888003 0.110225
vn 0.0000 1.0000 0.0000
usemtl None
s off
f 102/1/1 101/2/1 1/3/1
f 106/4/1 104/5/1 2/6/1
f 110/7/1 108/8/1 3/9/1
f 114/10/1 112/11/1 4/12/1
f 118/13/1 116/14/1 5/15/1
f 122/16/1 120/17/1 6/18/1
f 126/19/1 124/20/1 7/21/1
f 130/22/1 128/23/1 8/24/1
f 10/25/1 132/26/1 9/27/1
f 105/28/1 135/29/1 11/30/1
f 109/31/1 137/32/1 12/33/1
f 113/34/1 140/35/1 13/36/1
f 117/37/1 143/38/1 14/39/1
f 121/40/1 146/41/1 15/42/1
f 125/43/1 149/44/1 16/45/1
f 129/46/1 152/47/1 17/48/1
f 133/49/1 155/50/1 18/51/1
f 20/52/1 158/53/1 19/54/1
f 138/55/1 161/56/1 21/57/1
f 141/58/1 163/59/1 22/60/1
f 144/61/1 166/62/1 23/63/1
f 147/64/1 169/65/1 24/66/1
f 150/67/1 172/68/1 25/69/1
f 153/70/1 175/71/1 26/72/1
f 156/73/1 178/74/1 27/75/1
f 159/76/1 181/77/1 28/78/1
f 30/79/1 184/80/1 29/81/1
f 164/82/1 187/83/1 31/84/1
f 167/85/1 189/86/1 32/87/1
f 170/88/1 192/89/1 33/90/1
f 173/91/1 195/92/1 34/93/1
f 176/94/1 198/95/1 35/96/1
f 179/97/1 201/98/1 36/99/1
f 182/100/1 204/101/1 37/102/1
f 185/103/1 207/104/1 38/105/1
f 40/106/1 210/107/1 39/108/1
f 190/109/1 213/110/1 41/111/1
f 193/112/1 215/113/1 42/114/1
f 196/115/1 218/116/1 43/117/1
f 199/118/1 221/119/1 44/120/1
f 202/121/1 224/122/1 45/123/1
f 205/124/1 227/125/1 46/126/1
f 208/127/1 230/128/1 47/129/1
f 211/130/1 233/131/1 48/132/1
f 50/133/1 236/134/1 49/135/1
f 216/136/1 239/137/1 51/138/1
f 219/139/1 241/140/1 52/141/1
f 222/142/1 244/143/1 53/144/1
f 225/145/1 247/146/1 54/147/1
f 228/148/1 250/149/1 55/150/1
f 231/151/1 253/152/1 56/153/1
f 234/154/1 256/155/1 57/156/1
f 237/157/1 259/158/1 58/159/1
f 60/160/1 262/161/1 59/162/1
f 242/163/1 265/164/1 61/165/1
f 245/166/1 267/167/1 62/168/1
f 248/169/1 270/170/1 63/171/1
f 251/172/1 273/173/1 64/174/1
f 254/175/1 276/176/1 65/177/1
f 257/178/1 279/179/1 66/180/1
f 260/181/1 282/182/1 67/183/1
f 263/184/1 285/185/1 68/186/1
f 70/187/1 288/188/1 69/189/1
f 268/190/1 291/191/1 71/192/1
f 271/193/1 293/194/1 72/195/1
f 274/196/1 296/197/1 73/198/1
f 277/199/1 299/200/1 74/201/1
f 280/202/1 302/203/1 75/204/1
f 283/205/1 305/206/1 76/207/1
f 286/208/1 308/209/1 77/210/1
f 289/211/1 311/212/1 78/213/1
f 80/214/1 314/215/1 79/216/1
f 294/217/1 91/218/1 81/219/1
f 297/220/1 92/221/1 82/222/1
f 300/223/1 93/224/1 83/225/1
f 303/226/1 94/227/1 84/228/1
f 306/229/1 95/230/1 85/231/1
f 309/232/1 96/233/1 86/234/1
f 312/235/1 97/236/1 87/237/1
f 315/238/1 98/239/1 88/240/1
f 90/241/1 99/242/1 89/243/1
f 102/1/1 103/244/1 101/2/1
f 106/4/1 107/245/1 104/5/1
f 110/7/1 111/246/1 108/8/1
f 114/10/1 115/247/1 112/11/1
f 118/13/1 119/248/1 116/14/1
f 122/16/1 123/249/1 120/17/1
f 126/19/1 127/250/1 124/20/1
f 130/22/1 131/251/1 128/23/1
f 10/25/1 134/252/1 132/26/1
f 105/28/1 136/253/1 135/29/1
f 109/31/1 139/254/1 137/32/1
f 113/34/1 142/255/1 140/35/1
f 117/37/1 145/256/1 143/38/1
f 121/40/1 148/257/1 146/41/1
f 125/43/1 151/258/1 149/44/1
f 129/46/1 154/259/1 152/47/1
f 133/49/1 157/260/1 155/50/1
f 20/52/1 160/261/1 158/53/1
f 138/55/1 162/262/1 161/56/1
f 141/58/1 165/263/1 163/59/1
f 144/61/1 168/264/1 166/62/1
f 147/64/1 171/265/1 169/65/1
f 150/67/1 174/266/1 172/68/1
f 153/70/1 177/267/1 175/71/1
f 156/73/1 180/268/1 178/74/1
f 159/76/1 183/269/1 181/77/1
f 30/79/1 186/270/1 184/80/1
f 164/82/1 188/271/1 187/83/1
f 167/85/1 191/272/1 189/86/1
f 170/88/1 194/273/1 192/89/1
f 173/91/1 197/274/1 195/92/1
f 176/94/1 200/275/1 198/95/1
f 179/97/1 203/276/1 201/98/1
f 182/100/1 206/277/1 204/101/1
f 185/103/1 209/278/1 207/104/1
f 40/106/1 212/279/1 210/107/1
f 190/109/1 214/280/1 213/110/1
f 193/112/1 217/281/1 215/113/1
f 196/115/1 220/282/1 218/116/1
f 199/118/1 223/283/1 221/119/1
f 202/121/1 226/284/1 224/122/1
f 205/124/1 229/285/1 227/125/1
f 208/127/1 232/286/1 230/128/1
f 211/130/1 235/287/1 233/131/1
f 50/133/1 238/288/1 236/134/1
f 216/136/1 240/289/1 239/137/1
f 219/139/1 243/290/1 241/140/1
f 222/142/1 246/291/1 244/143/1
f 225/145/1 249/292/1 247/146/1
f 228/148/1 252/293/1 250/149/1
f 231/151/1 255/294/1 253/152/1
f 234/154/1 258/295/1 256/155/1
f 237/157/1 261/296/1 259/158/1
f 60/160/1 264/297/1 262/161/1
f 242/163/1 266/298/1 265/164/1
f 245/166/1 269/299/1 267/167/1
f 248/169/1 272/300/1 270/170/1
f 251/172/1 275/301/1 273/173/1
f 254/175/1 278/302/1 276/176/1
f 257/178/1 281/303/1 279/179/1
f 260/181/1 284/304/1 282/182/1
f 263/184/1 287/305/1 285/185/1
f 70/187/1 290/306/1 288/188/1
f 268/190/1 292/307/1 291/191/1
f 271/193/1 295/308/1 293/194/1
f 274/196/1 298/309/1 296/197/1
f 277/199/1 301/310/1 299/200/1
f 280/202/1 304/311/1 302/203/1
f 283/205/1 307/312/1 305/206/1
f 286/208/1 310/313/1 308/209/1
f 289/211/1 313/314/1 311/212/1
f 80/214/1 316/315/1 314/215/1
f 294/217/1 317/316/1 91/218/1
f 297/220/1 318/317/1 92/221/1
f 300/223/1 319/318/1 93/224/1
f 303/226/1 320/319/1 94/227/1
f 306/229/1 321/320/1 95/230/1
f 309/232/1 322/321/1 96/233/1
f 312/235/1 323/322/1 97/236/1
f 315/238/1 324/323/1 98/239/1
f 90/241/1 100/324/1 99/242/1
